<?xml version="1.0" encoding="iso-8859-1"?>
<!-- Generator: Adobe Illustrator 23.0.3, SVG Export Plug-In . SVG Version: 6.00 Build 0)  -->
<svg version="1.1" id="Layer_2" xmlns="http://www.w3.org/2000/svg" xmlns:xlink="http://www.w3.org/1999/xlink" x="0px" y="0px"
	 viewBox="0 0 100 100" style="enable-background:new 0 0 100 100;" xml:space="preserve">
<polygon style="fill:#F9E65C;" points="15.398,40.469 50,82 85,40.469 "/>
<polygon style="fill:#F9E65C;" points="29.963,20.893 16.255,40.362 28.948,40.362 "/>
<polygon style="fill:#F9E65C;" points="70.383,20.893 84.09,40.362 71.398,40.362 "/>
<polygon style="fill:#FEF6AA;" points="29.518,40.386 50.081,18.384 71.015,40.766 "/>
<polygon style="fill:#F9E65C;" points="70,20.893 71.015,40.362 49.926,18.277 "/>
<polygon style="fill:#F9E65C;" points="29.963,20.893 28.948,40.362 50.037,18.277 "/>
<polygon style="fill:none;stroke:#1F212B;stroke-width:2;stroke-linecap:round;stroke-linejoin:round;stroke-miterlimit:10;" points="
	70,21 50,18 30,21 15,41 50,82 85,40.469 "/>
<line style="fill:none;stroke:#1F212B;stroke-linecap:round;stroke-linejoin:round;stroke-miterlimit:10;" x1="15" y1="40.469" x2="85" y2="40.469"/>
<polyline style="fill:none;stroke:#1F212B;stroke-linecap:round;stroke-linejoin:round;stroke-miterlimit:10;" points="30,21 
	28.985,40.469 50.298,18.17 "/>
<line style="fill:#EDDC67;stroke:#1F212B;stroke-linecap:round;stroke-linejoin:round;stroke-miterlimit:10;" x1="28.985" y1="40.469" x2="50" y2="82"/>
<polyline style="fill:none;stroke:#1F212B;stroke-linecap:round;stroke-linejoin:round;stroke-miterlimit:10;" points="70,21 
	71.015,40.469 49.926,18.384 "/>
<line style="fill:none;stroke:#1F212B;stroke-linecap:round;stroke-linejoin:round;stroke-miterlimit:10;" x1="71.015" y1="40.469" x2="50" y2="82"/>
</svg>